<svg width="43" height="54" viewBox="0 0 43 54" xmlns="http://www.w3.org/2000/svg"><title>Destination_bubble</title><g fill="none" fill-rule="evenodd"><path d="M17.27 0h8.53c9.39 0 17.066 7.714 17.066 17.14v8.567c0 9.427-7.68 17.138-17.067 17.138h-.028L25.77 53.34 15.186 42.71C6.773 41.67.202 34.424.203 25.704v-8.566C.203 7.71 7.883 0 17.27 0" fill="#F63F5B"/><path d="M26.625 23.573c-1.292 0-2.32 1.097-2.32 2.44 0 1.354 1.045 2.437 2.32 2.437 1.29 0 2.317-1.1 2.317-2.438 0-1.36-1.028-2.44-2.317-2.44zm-12.46.03c-1.276 0-2.29 1.084-2.29 2.41 0 1.337 1.03 2.403 2.29 2.403 1.258 0 2.286-1.083 2.286-2.404 0-1.325-1.027-2.408-2.285-2.408zm9.34 2.392s0-3.232 3.12-3.232c0 0 3.168-.048 3.168 3.232l1.485-.017s3.056.29 3.056-3.04c0 0-.33-2.134-3.432-3.026L27.67 18.83l-4.02-3.437s-.603-.808-1.763-.808h-8.72s-.39 0-.898.617l-2.074 4.264h.506c-2.32 0-1.944 2.61-1.944 2.61l.115 2.284c0 1.84 2.14 1.7 2.14 1.7s.014-3.314 3.233-3.314c0 0 3.052.068 3.052 3.314l6.207-.065z" fill="#FFF"/></g></svg>